<?xml version="1.0" standalone="no"?>
<!DOCTYPE svg PUBLIC "-//W3C//DTD SVG 20010904//EN"
 "http://www.w3.org/TR/2001/REC-SVG-20010904/DTD/svg10.dtd">
<svg version="1.0" xmlns="http://www.w3.org/2000/svg"
 width="189.000000pt" height="189.000000pt" viewBox="0 0 189.000000 189.000000"
 preserveAspectRatio="xMidYMid meet">
<metadata>
Created by potrace 1.11, written by Peter Selinger 2001-2013
</metadata>
<g transform="translate(0.000000,189.000000) scale(0.100000,-0.100000)"
fill="#000000" stroke="none">
<path d="M1077 1480 c3 -11 1 -20 -5 -20 -5 0 -8 -22 -6 -52 8 -135 16 -215
22 -225 15 -22 74 -44 103 -38 16 4 29 10 29 14 0 4 12 6 28 4 15 -3 40 0 55
6 l29 11 -36 49 -35 50 21 50 c12 28 18 54 14 58 -4 4 -27 8 -52 8 -34 0 -44
4 -44 17 0 18 -47 38 -91 38 -22 0 -26 4 -22 19 3 10 0 22 -5 25 -6 4 -8 -2
-5 -14z m112 -140 c2 -57 17 -70 34 -28 9 20 25 42 37 48 20 11 21 10 15 -12
-4 -12 -14 -33 -22 -46 -13 -21 -12 -26 16 -64 35 -47 38 -58 16 -58 -8 0 -25
16 -37 35 -29 44 -43 40 -43 -13 0 -32 -4 -42 -16 -42 -22 0 -47 229 -27 241
16 10 26 -13 27 -61z m-79 56 c0 -2 -7 -7 -16 -10 -8 -3 -12 -2 -9 4 6 10 25
14 25 6z"/>
<path d="M1106 1475 c4 -8 8 -15 10 -15 2 0 4 7 4 15 0 8 -4 15 -10 15 -5 0
-7 -7 -4 -15z"/>
<path d="M1226 1433 c-6 -14 -5 -15 5 -6 7 7 10 15 7 18 -3 3 -9 -2 -12 -12z"/>
<path d="M1523 1435 c-3 -9 -3 -18 -1 -21 3 -3 8 4 11 16 6 23 -1 27 -10 5z"/>
<path d="M1255 1429 c-4 -6 -5 -12 -2 -15 2 -3 7 2 10 11 7 17 1 20 -8 4z"/>
<path d="M191 1421 c-11 -7 -13 -28 -7 -102 10 -144 14 -156 52 -180 26 -16
43 -19 70 -15 21 5 32 11 28 18 -5 7 1 9 19 5 28 -8 87 1 87 13 0 4 -15 27
-33 51 l-34 43 24 53 23 54 -26 9 c-14 6 -39 10 -55 10 -18 0 -28 4 -24 10 8
12 -54 40 -87 40 -13 0 -29 -4 -37 -9z m110 -73 c1 -24 4 -54 8 -68 7 -24 8
-24 29 18 24 45 59 60 47 20 -4 -13 -11 -27 -16 -32 -15 -16 -10 -38 16 -72
28 -37 32 -54 11 -54 -8 0 -24 16 -36 34 -29 48 -54 39 -45 -15 6 -35 5 -39
-14 -39 -18 0 -21 6 -21 48 0 26 -5 78 -10 116 -8 54 -8 71 2 78 23 14 28 9
29 -34z m-58 -9 c7 0 1 -5 -12 -10 -13 -5 -26 -7 -29 -4 -3 3 1 5 9 5 12 0 11
2 -1 11 -12 9 -12 10 3 5 10 -3 24 -6 30 -7z m12 -89 c-3 -5 -12 -10 -18 -10
-7 0 -6 4 3 10 19 12 23 12 15 0z m2 -26 c-3 -3 -12 -4 -19 -1 -8 3 -5 6 6 6
11 1 17 -2 13 -5z"/>
<path d="M345 1419 c-4 -6 -5 -12 -2 -15 2 -3 7 2 10 11 7 17 1 20 -8 4z"/>
<path d="M365 1410 c-3 -5 -1 -10 4 -10 6 0 11 5 11 10 0 6 -2 10 -4 10 -3 0
-8 -4 -11 -10z"/>
<path d="M854 1396 c-41 -18 -102 -92 -110 -134 -14 -74 31 -146 102 -162 76
-17 120 12 112 76 -3 26 -6 29 -36 26 -41 -4 -82 21 -82 51 0 37 15 51 48 44
38 -8 62 17 62 62 0 25 -6 34 -26 41 -31 12 -32 12 -70 -4z m46 -60 c0 -19 -4
-22 -24 -19 -49 10 -89 -72 -62 -126 17 -33 57 -56 85 -48 16 4 21 0 21 -14 0
-40 -116 -16 -143 30 -38 65 -19 142 46 181 45 28 77 26 77 -4z m-28 -160 c9
-16 7 -16 -10 -7 -27 15 -36 30 -16 27 9 -1 21 -10 26 -20z"/>
<path d="M390 1389 c0 -5 5 -7 10 -4 6 3 10 8 10 11 0 2 -4 4 -10 4 -5 0 -10
-5 -10 -11z"/>
<path d="M770 1390 c0 -6 -6 -8 -12 -4 -7 4 -9 3 -5 -1 10 -12 37 -15 37 -5 0
5 -4 12 -10 15 -5 3 -10 1 -10 -5z"/>
<path d="M965 1390 c-3 -5 -1 -10 4 -10 6 0 11 5 11 10 0 6 -2 10 -4 10 -3 0
-8 -4 -11 -10z"/>
<path d="M1424 1392 c-12 -2 -33 -16 -48 -31 -21 -22 -27 -37 -24 -62 3 -32 5
-34 37 -31 l34 4 -36 -51 c-21 -28 -37 -56 -37 -61 0 -20 68 -34 147 -31 14 1
29 15 46 45 22 39 23 46 10 69 -8 16 -19 24 -28 21 -9 -4 -13 1 -12 15 0 11 3
18 6 16 10 -11 41 30 41 55 0 47 -32 57 -136 42z m19 -25 c20 13 54 10 54 -4
0 -7 -3 -11 -5 -8 -3 3 -11 -3 -18 -13 -7 -9 -14 -12 -14 -6 0 14 -30 14 -30
0 0 -6 -5 -4 -10 4 -5 8 -10 10 -10 5 0 -6 -10 -11 -22 -12 l-23 -2 23 13 c12
6 19 16 15 21 -4 4 -2 5 5 1 7 -4 12 -2 13 6 0 10 2 10 6 0 2 -6 10 -9 16 -5z
m95 -31 c-7 -8 -15 -12 -17 -11 -5 6 10 25 20 25 5 0 4 -6 -3 -14z m-55 -25
c17 -2 5 -51 -23 -89 -16 -23 -30 -43 -30 -45 0 -2 16 -1 35 1 30 4 35 1 35
-17 0 -17 -6 -21 -34 -21 -48 0 -96 11 -96 22 0 5 14 29 30 53 37 54 38 65 1
65 -19 0 -30 6 -33 18 -5 17 1 18 51 16 31 -1 59 -3 64 -3z m38 -79 c-15 -29
-38 -45 -38 -27 0 8 4 12 8 9 4 -2 10 5 14 16 3 11 11 20 16 20 6 0 6 -7 0
-18z m24 -19 c-2 -10 -4 -19 -4 -21 -1 -2 -6 0 -11 3 -8 5 -7 11 1 21 15 18
18 18 14 -3z"/>
<path d="M1445 1359 c-3 -4 2 -6 10 -5 21 3 28 13 10 13 -9 0 -18 -4 -20 -8z"/>
<path d="M489 1358 c-9 -16 -9 -23 0 -26 6 -2 11 -12 11 -22 0 -10 7 -26 16
-34 14 -15 14 -16 0 -16 -18 0 -19 -18 -9 -123 5 -62 9 -70 32 -79 31 -13 69
-12 86 2 17 14 7 182 -11 193 -11 6 -12 13 -3 28 7 15 7 24 -1 34 -13 15 -74
31 -100 26 -12 -2 -13 0 -2 10 14 15 16 29 2 29 -5 0 -15 -10 -21 -22z m51
-43 c-7 -9 -15 -13 -19 -10 -3 3 1 10 9 15 21 14 24 12 10 -5z m56 -31 c-5
-13 -10 -14 -18 -6 -6 6 -8 18 -4 28 5 13 10 14 18 6 6 -6 8 -18 4 -28z m18
-131 c7 -79 6 -83 -13 -83 -15 0 -21 7 -22 23 -7 118 -6 132 10 138 9 4 17 6
17 5 1 0 5 -38 8 -83z m-59 67 c-3 -5 -12 -10 -18 -10 -7 0 -6 4 3 10 19 12
23 12 15 0z m0 -80 c3 -6 -4 -10 -17 -10 -18 0 -20 2 -8 10 19 12 18 12 25 0z
m2 -26 c-3 -3 -12 -4 -19 -1 -8 3 -5 6 6 6 11 1 17 -2 13 -5z"/>
<path d="M599 1353 c-13 -16 -12 -17 4 -4 9 7 17 15 17 17 0 8 -8 3 -21 -13z"/>
<path d="M615 1340 c-3 -5 -2 -10 4 -10 5 0 13 5 16 10 3 6 2 10 -4 10 -5 0
-13 -4 -16 -10z"/>
<path d="M965 1340 c3 -5 8 -10 11 -10 2 0 4 5 4 10 0 6 -5 10 -11 10 -5 0 -7
-4 -4 -10z"/>
<path d="M657 1186 c-14 -11 -17 -23 -13 -48 7 -46 16 -163 21 -287 4 -91 3
-106 -15 -131 -22 -31 -25 -40 -11 -40 5 0 12 10 16 23 7 21 7 21 14 -7 8 -38
33 -54 53 -35 8 7 13 22 10 33 -4 15 -1 18 12 13 10 -4 20 -7 22 -7 2 0 4 -7
4 -16 0 -21 -25 -45 -49 -47 -16 -1 -20 -8 -19 -38 0 -20 -5 -45 -10 -56 -6
-11 -8 -23 -5 -27 3 -3 -1 -6 -10 -6 -9 0 -17 -5 -17 -12 0 -6 -2 -9 -5 -6 -3
3 -31 -5 -62 -18 -58 -23 -85 -20 -106 10 -4 6 -5 0 -4 -14 6 -37 45 -61 103
-61 123 -1 215 99 186 202 -6 22 -6 40 1 50 13 21 2 50 -21 56 -17 4 -19 18
-20 141 -2 130 -6 189 -21 292 -7 48 -23 59 -54 36z"/>
<path d="M356 1081 c-4 -5 -6 -64 -7 -131 0 -100 3 -127 18 -153 20 -34 63
-48 87 -28 9 8 22 8 40 1 37 -14 35 -56 -4 -100 -47 -53 -33 -90 30 -83 14 2
38 5 53 7 15 1 36 10 45 20 16 16 15 17 -11 7 -35 -14 -40 -14 -32 -1 3 6 -1
7 -9 4 -9 -3 -13 -10 -10 -15 6 -10 -69 -13 -79 -3 -12 13 15 62 39 68 13 4
24 11 24 17 0 6 4 7 10 4 5 -3 12 6 16 20 3 13 10 23 14 20 4 -3 10 2 14 10 8
23 26 18 27 -7 1 -22 1 -22 9 2 4 14 8 19 9 13 1 -7 5 -13 10 -13 18 0 -41
164 -73 201 -16 19 -19 19 -41 5 -13 -9 -33 -16 -45 -16 -11 0 -20 -4 -20 -10
0 -5 7 -7 15 -4 8 4 15 1 15 -5 0 -6 -9 -11 -19 -11 -12 0 -21 -8 -23 -21 -3
-24 -33 -48 -44 -36 -4 3 -7 51 -6 106 0 91 -1 101 -23 121 -13 13 -25 17 -29
11z m174 -281 c-6 -12 -14 -19 -17 -17 -2 3 1 15 7 27 6 12 14 19 17 17 2 -3
-1 -15 -7 -27z"/>
<path d="M1317 1003 c-4 -3 -7 -11 -7 -17 0 -6 5 -5 12 2 6 6 9 14 7 17 -3 3
-9 2 -12 -2z"/>
<path d="M1480 999 c0 -5 5 -7 10 -4 6 3 10 8 10 11 0 2 -4 4 -10 4 -5 0 -10
-5 -10 -11z"/>
<path d="M1288 983 c5 -10 8 -29 7 -43 -1 -14 -5 -68 -10 -120 -4 -52 -9 -98
-12 -102 -7 -13 72 -44 105 -40 24 2 32 8 32 23 0 20 0 20 26 0 19 -15 41 -21
79 -21 l53 0 7 108 c4 59 7 112 7 117 1 32 -5 43 -28 54 -26 11 -26 12 -8 26
11 8 14 15 7 15 -6 0 -15 -4 -18 -10 -3 -5 -17 -10 -30 -10 -40 0 -55 -11 -55
-40 l0 -28 -29 29 c-16 16 -39 29 -51 29 -16 0 -20 4 -16 15 3 8 1 15 -4 15
-6 0 -10 -7 -10 -15 0 -8 -9 -15 -20 -15 -11 0 -20 7 -20 15 0 8 -5 15 -10 15
-7 0 -7 -6 -2 -17z"/>
<path d="M931 954 c0 -11 3 -14 6 -6 3 7 2 16 -1 19 -3 4 -6 -2 -5 -13z"/>
<path d="M974 941 c-52 -24 -74 -55 -74 -106 1 -83 68 -170 124 -159 111 21
126 27 151 56 22 27 26 39 24 88 -1 31 1 62 5 68 4 7 1 12 -10 12 -14 0 -15 2
-3 16 12 15 11 16 -11 9 -20 -6 -23 -5 -12 6 17 18 15 34 -3 19 -8 -6 -19 -8
-26 -4 -27 16 -124 13 -165 -5z m93 -98 c15 -33 1 -93 -22 -93 -21 0 -39 64
-25 90 13 25 36 26 47 3z"/>
<path d="M900 942 c0 -12 19 -26 26 -19 2 2 -2 10 -11 17 -9 8 -15 8 -15 2z"/>
<path d="M611 650 c-13 -11 -18 -20 -13 -20 6 0 14 5 17 11 5 7 15 5 32 -6 14
-9 27 -14 30 -12 2 3 -5 10 -16 17 -12 6 -19 15 -16 21 10 15 -9 9 -34 -11z"/>
<path d="M488 613 c6 -2 18 -2 25 0 6 3 1 5 -13 5 -14 0 -19 -2 -12 -5z"/>
<path d="M542 550 c-18 -17 -29 -30 -24 -30 5 0 21 14 37 30 37 38 30 38 -13
0z"/>
</g>
</svg>
